<svg width="102" height="31" viewBox="0 0 102 31" fill="none" xmlns="http://www.w3.org/2000/svg">
<path fill-rule="evenodd" clip-rule="evenodd" d="M14.728 14.5849C14.7903 14.6691 14.853 14.7539 14.9154 14.8405C15.1207 15.1231 15.1642 15.4613 14.9081 15.6787C14.2608 16.2149 13.1183 17.2173 12.4903 17.7729L12.4806 17.768C12.2705 17.9516 11.971 17.9661 11.7342 17.8405C10.846 17.1037 10.5751 16.6999 10.1649 16.0883C10.0909 15.978 10.0125 15.8611 9.92507 15.7342C8.19561 17.4999 6.96856 18.0289 4.7222 18.0289C2.06762 18.0289 0 16.3888 0 13.111C0 10.5507 1.39371 8.80672 3.36472 7.9589C4.79356 7.33101 6.69189 7.13403 8.34165 6.96285C8.67201 6.92857 8.9924 6.89533 9.29705 6.85987V6.45407C9.29705 6.3745 9.29773 6.29335 9.29843 6.21107C9.30424 5.5191 9.31072 4.74761 8.91783 4.16906C8.53136 3.58694 7.79706 3.34781 7.14972 3.34781C5.94683 3.34781 4.86954 3.96375 4.61109 5.24152C4.55553 5.52654 4.34539 5.80673 4.0652 5.81881L0.997579 5.49031C0.746373 5.43234 0.456519 5.22461 0.528983 4.82848C1.23671 1.11835 4.58452 0 7.5845 0C9.12314 0 11.128 0.408212 12.3405 1.57004C13.7498 2.88833 13.7398 4.61036 13.7289 6.49446C13.728 6.66095 13.727 6.8287 13.727 6.99755V11.9154C13.727 13.2319 14.2132 13.8891 14.728 14.5849ZM9.29722 10.2505C9.29713 10.1908 9.29705 10.1306 9.29705 10.07V9.38642C7.01929 9.38642 4.61109 9.87434 4.61109 12.5627C4.61109 13.9275 5.31398 14.8477 6.52412 14.8477C7.413 14.8477 8.20769 14.3043 8.70768 13.4154C9.30013 12.3775 9.29879 11.4007 9.29722 10.2505ZM56.2798 14.8405C56.2177 14.7538 56.1552 14.669 56.0931 14.5847C55.5805 13.889 55.0963 13.2317 55.0963 11.9154V6.99755C55.0963 6.83447 55.0972 6.67242 55.098 6.51154V6.5109V6.51027V6.50964V6.50902V6.50839C55.1083 4.61885 55.1177 2.89158 53.705 1.57004C52.4948 0.408212 50.4876 0 48.9538 0C45.9538 0 42.5988 1.11835 41.8983 4.82848C41.8234 5.22461 42.1084 5.43234 42.3669 5.49031L45.4248 5.81881C45.7099 5.80673 45.92 5.52654 45.9756 5.24152C46.234 3.96375 47.3089 3.34781 48.5118 3.34781C49.1615 3.34781 49.8982 3.58694 50.2775 4.16906C50.6774 4.74848 50.671 5.52142 50.6653 6.2142C50.6646 6.2954 50.6639 6.37551 50.6639 6.45407L50.6615 6.85503C50.3622 6.88943 50.0479 6.92175 49.7239 6.95507L49.7238 6.95508C48.0683 7.12531 46.1614 7.32139 44.7292 7.95165C42.7509 8.8043 41.3669 10.5483 41.3669 13.1086C41.3669 16.3864 43.4297 18.0265 46.0843 18.0265C48.3258 18.0265 49.5577 17.4975 51.2871 15.7318C51.3704 15.8533 51.4457 15.9656 51.5166 16.0717L51.5176 16.0732L51.5187 16.0747L51.5187 16.0748C51.9322 16.6926 52.2027 17.0968 53.0963 17.8381C53.3354 17.9637 53.6374 17.9492 53.8451 17.7656L53.8499 17.7704C54.4803 17.2149 55.6228 16.2125 56.2654 15.6762C56.519 15.4661 56.4827 15.1231 56.2798 14.8405ZM50.6615 10.07L50.6617 10.2499C50.6633 11.4003 50.6646 12.3773 50.0697 13.4154C49.5722 14.3043 48.7726 14.8477 47.8934 14.8477C46.6784 14.8477 45.9683 13.9275 45.9683 12.5627C45.9683 9.87434 48.3789 9.38642 50.6615 9.38642V10.07ZM34.1714 0.149902C35.4903 0.149902 36.9371 0.695793 37.8212 1.92042C38.6759 3.08767 38.6493 4.70708 38.6242 6.23931V6.23965V6.23999V6.24033V6.24066V6.241V6.24133C38.62 6.49671 38.6158 6.74966 38.6158 6.99769L38.611 17.215C38.611 17.5363 38.3405 17.7996 38.0047 17.7996H34.8526C34.5386 17.7754 34.2849 17.5266 34.2849 17.215V8.63053C34.2849 8.49867 34.2872 8.32888 34.2897 8.13603C34.3004 7.32917 34.3164 6.11873 34.1956 5.59432C33.9613 4.50737 33.256 4.20061 32.3405 4.20061C31.5772 4.20061 30.7777 4.71026 30.454 5.52669C30.1566 6.28251 30.1594 7.51034 30.1615 8.41864V8.41866V8.4198V8.42091V8.42198V8.42304C30.1616 8.49431 30.1618 8.5636 30.1618 8.63053V17.215C30.1618 17.5363 29.8937 17.7996 29.5531 17.7996H26.4033C26.0845 17.7754 25.8333 17.5266 25.8333 17.215V8.63053C25.8333 8.44868 25.8363 8.25821 25.8393 8.06271V8.06268V8.06265V8.06262V8.06259V8.06256V8.06253C25.8665 6.31568 25.8999 4.16679 23.884 4.16679C21.7023 4.16679 21.7066 6.57012 21.7099 8.41973L21.7101 8.63053V17.2174C21.7101 17.5387 21.4396 17.802 21.1039 17.802H17.9469C17.6449 17.7827 17.4034 17.558 17.3817 17.2682V1.07502C17.3817 0.751349 17.6546 0.492896 17.9903 0.492896H20.9324C21.2391 0.504973 21.4855 0.741687 21.5048 1.03396V3.14989H21.558C22.3285 1.104 23.7705 0.149902 25.7149 0.149902C27.6884 0.149902 28.9251 1.10642 29.8091 3.14989C30.5748 1.104 32.3091 0.149902 34.1714 0.149902ZM72.3136 9.11099C72.3136 4.07237 74.845 0.1521 79.4102 0.1521C84.0961 0.1521 86.6372 4.1714 86.6251 9.28249C86.6251 14.2221 83.8256 18.1399 79.4102 18.1399C74.8136 18.1399 72.3136 14.1206 72.3136 9.11099ZM76.9633 8.66135C76.9631 10.6646 76.9625 14.8018 79.4102 14.8018C81.8619 14.8018 81.9802 11.396 81.9706 9.31872C81.9706 7.95157 81.9126 6.31873 81.4971 5.02405C81.1469 3.89604 80.4343 3.45643 79.4343 3.45643C77.1131 3.45643 76.9633 6.62549 76.9633 8.59891V8.66135ZM97.4415 0.147461C98.8546 0.149876 100.243 0.661952 101.13 2.05808C101.956 3.35759 101.956 5.53391 101.956 7.10153V17.2947C101.913 17.5773 101.659 17.8068 101.342 17.8068H98.1758C97.8932 17.7802 97.6444 17.5677 97.6203 17.2947V8.50008C97.6203 8.3614 97.6216 8.21768 97.6229 8.07057C97.6382 6.33945 97.6577 4.13778 95.6541 4.13778C94.8812 4.13778 94.1783 4.65227 93.828 5.43246C93.3788 6.42279 93.3232 7.40588 93.3232 8.50008V17.215C93.3184 17.5411 93.0454 17.8044 92.7049 17.8044H89.5672C89.2459 17.7802 88.9971 17.5266 88.9971 17.215L88.9923 1.01702C89.0213 0.719923 89.2798 0.488041 89.601 0.488041H92.5261C92.7991 0.500118 93.0309 0.688522 93.0913 0.942144V3.41798H93.1421C94.0213 1.20301 95.2652 0.147461 97.4415 0.147461ZM70.2436 13.4178C68.4321 12.3985 66.3282 12.0989 64.3282 12.1497L69.7098 4.47821C70.205 3.78739 70.4876 3.35503 70.4876 3.0217V1.03861C70.4876 0.690789 70.2243 0.45166 69.8886 0.45166H59.5191C59.1954 0.45166 58.9345 0.685959 58.9345 1.03861V3.35503C58.9345 3.70043 59.1954 3.93715 59.5336 3.93715H64.9538L58.7268 12.8646C58.35 13.4371 58.3452 14.0796 58.3452 14.4564V16.8066C58.3452 17.1448 58.7292 17.5337 59.0867 17.3356C62.6157 15.4637 66.8475 15.6496 70.0359 17.3211C70.432 17.524 70.7992 17.1279 70.7992 16.7897V14.3163C70.763 13.9854 70.6543 13.6448 70.2436 13.4178ZM58.6494 20.1711C62.0382 17.7919 67.5938 18.4803 68.2387 19.2798C68.8884 20.0866 68.072 25.6566 64.886 28.3088C64.3981 28.7146 63.9295 28.4972 64.1493 27.9561C64.8667 26.1735 66.4657 22.1735 65.7097 21.2049C64.9621 20.2464 60.772 20.7404 58.8448 20.9677L58.7991 20.9731C58.217 21.0407 58.1325 20.5359 58.6494 20.1711ZM62.3932 22.6324C55.7556 25.4513 48.5358 26.8087 41.9658 26.8087C32.2388 26.8087 22.8113 24.1445 15.1954 19.7097C14.5311 19.3184 14.036 20.002 14.5891 20.502C21.6495 26.8812 30.9803 30.7169 41.345 30.7169C48.7411 30.7169 57.3232 28.3909 63.2507 24.0237C64.229 23.2991 63.3956 22.2121 62.3932 22.6324Z" fill="black"/>
</svg>
