<svg width="65" height="38" viewBox="0 0 65 38" fill="none" xmlns="http://www.w3.org/2000/svg">
<path d="M31.5039 0H0V31.5039C10.4704 31.5039 21.0335 31.5039 31.5039 31.5039C31.5039 21.0335 31.5039 10.5631 31.5039 0ZM25.2032 26.9637C23.628 28.1682 21.8674 29.0022 19.9216 29.4655C17.6978 30.0214 15.3813 30.0214 13.2502 29.4655C11.397 29.0022 9.6365 28.1682 8.15396 26.9637C6.4861 25.7591 5.18888 24.0912 4.16964 22.2381C2.59444 19.273 2.13115 15.752 2.96508 12.5089C3.52103 9.91447 4.91091 7.50535 6.85674 5.65218C9.08055 3.42837 12.1383 2.03849 15.2887 1.66786C16.6786 1.48254 18.1611 1.5752 19.551 1.85317C22.0528 2.31647 24.4619 3.61369 26.3151 5.3742C27.3343 6.39345 28.2609 7.50535 29.0022 8.70991C26.4077 10.1925 23.8133 11.675 21.1262 13.1575C20.5702 12.2309 19.8289 11.4897 18.9024 11.119C18.0684 10.7484 17.0492 10.5631 16.1226 10.6557C15.0107 10.7484 13.8988 11.3044 13.1575 12.1383C12.3236 12.9722 11.8603 14.0841 11.7676 15.196C11.5823 16.9565 12.4163 18.8097 13.9915 19.829C15.2887 20.7555 17.0492 20.9409 18.5317 20.4776C19.6436 20.1069 20.6629 19.273 21.2188 18.1611C23.8133 19.6436 26.4077 21.1262 29.0948 22.6087C27.9829 24.3692 26.6857 25.8518 25.2032 26.9637Z" fill="#27282A"/>
<path d="M51.7962 2.22369C51.7962 6.0227 51.7962 9.72905 51.7962 13.5281C48.7385 9.8217 45.7734 6.0227 42.8083 2.22369C39.8433 2.22369 36.7855 2.22369 33.8204 2.22369C33.8204 11.2116 33.8204 20.1995 33.8204 29.28H33.9131C36.3222 29.28 38.7313 29.28 41.1405 29.28C41.2331 29.28 41.2331 29.28 41.3258 29.28C41.7891 29.28 42.2524 29.28 42.7157 29.28C42.7157 25.5737 42.7157 21.7747 42.7157 18.0683C45.6807 21.7747 48.7385 25.5737 51.7036 29.28C52.4448 29.28 53.2788 29.28 54.02 29.28C55.4099 29.28 56.7998 29.28 58.097 29.28C58.8383 29.28 59.6722 29.28 60.4135 29.28C60.5061 29.28 60.5988 29.28 60.6914 29.28C60.6914 20.2921 60.6914 11.3042 60.6914 2.22369C57.819 2.31635 54.854 2.31635 51.7962 2.22369Z" fill="#27282A"/>
<path d="M3.05766 36.5074C2.59436 36.5074 2.13107 35.9515 2.31639 35.4882C2.40905 35.2102 2.68702 34.9322 2.965 34.9322C3.24297 34.8396 3.61361 35.0249 3.79892 35.3029C4.16956 35.1175 4.44754 34.9322 4.81817 34.7469C4.5402 34.2836 4.16956 34.0056 3.61361 33.8203C3.05765 33.635 2.40905 33.7277 1.85309 34.0983C1.3898 34.3763 1.11182 34.9322 1.01917 35.3955C1.01917 35.7662 1.01917 36.2294 1.20448 36.5074C1.48246 37.156 2.22373 37.6193 2.87234 37.712H3.15031C3.79892 37.6193 4.44754 37.2487 4.72551 36.6927C4.35488 36.5074 4.0769 36.3221 3.70627 36.1368C3.61361 36.4148 3.33563 36.6001 3.05766 36.5074Z" fill="#27282A"/>
<path d="M19.7362 33.7277H19.6436C19.0876 33.7277 18.6243 34.0056 18.2537 34.3763C17.8831 34.7469 17.6978 35.2102 17.6978 35.7662C17.6978 36.2294 17.8831 36.6927 18.161 37.0634C18.5317 37.434 18.995 37.712 19.4583 37.8046H19.9216C20.4775 37.712 20.9408 37.5267 21.3114 37.0634C21.6821 36.6927 21.7747 36.1368 21.7747 35.5808C21.5894 34.5616 20.6628 33.7277 19.7362 33.7277ZM19.5509 36.5074C19.1803 36.5074 18.9023 36.2294 18.9023 35.8588C18.9023 35.5808 19.0876 35.2102 19.3656 35.1175C19.4583 35.1175 19.5509 35.1175 19.5509 35.1175C19.9216 35.1175 20.1995 35.3029 20.2922 35.6735C20.4775 36.0441 20.0142 36.5074 19.5509 36.5074Z" fill="#27282A"/>
<path d="M25.0178 34.0056C24.7398 33.8203 24.3692 33.7277 23.9986 33.7277C23.9059 33.7277 23.7206 33.7277 23.6279 33.7277C23.1646 33.8203 22.7014 34.0983 22.3307 34.5616C22.0527 35.0249 21.8674 35.5808 22.0527 36.1368C22.1454 36.6001 22.516 37.0634 22.8867 37.434C23.1647 37.6193 23.4426 37.712 23.8133 37.8046H24.1839C24.7398 37.712 25.2958 37.434 25.5738 36.9707C25.9444 36.5074 26.0371 35.8588 25.9444 35.3029C25.8518 34.7469 25.4811 34.2836 25.0178 34.0056ZM23.8133 36.4148C23.4426 36.3221 23.1646 35.8588 23.2573 35.4882C23.35 35.2102 23.5353 35.0249 23.8133 34.9322C23.9059 34.9322 23.9059 34.9322 23.9986 34.9322C24.3692 34.9322 24.7398 35.3029 24.7398 35.6735C24.7398 36.1368 24.2766 36.6001 23.8133 36.4148Z" fill="#27282A"/>
<path d="M52.0742 33.7277C51.9815 33.7277 51.8888 33.7277 51.7962 33.7277C51.0549 33.7277 50.3137 34.191 49.943 34.9322C49.665 35.5808 49.665 36.3221 50.0357 36.8781C50.4063 37.434 50.9623 37.712 51.5182 37.8046H51.8888C52.3521 37.712 52.8154 37.5267 53.0934 37.2487C53.3714 36.9707 53.6494 36.5074 53.6494 36.0441C53.742 35.5808 53.5567 35.1175 53.3714 34.7469C53.1861 34.191 52.7228 33.8203 52.0742 33.7277ZM51.7962 36.5074C51.4256 36.5074 51.1476 36.1368 51.1476 35.7662C51.1476 35.4882 51.3329 35.2102 51.6109 35.1175C51.7035 35.1175 51.7962 35.0249 51.8888 35.0249C52.2595 35.0249 52.6301 35.3029 52.6301 35.6735C52.6301 36.0441 52.2595 36.5074 51.7962 36.5074Z" fill="#27282A"/>
<path d="M6.11557 33.8204C5.74494 35.1177 5.28165 36.4149 4.91101 37.7121C5.3743 37.7121 5.8376 37.7121 6.30089 37.7121C6.39355 37.5268 6.39355 37.2488 6.48621 37.0635C6.85684 37.0635 7.32014 37.0635 7.69077 37.0635C7.78343 37.2488 7.78343 37.5268 7.87609 37.7121C8.33938 37.7121 8.80267 37.7121 9.26597 37.7121C8.89533 36.4149 8.43204 35.1177 8.06141 33.8204C7.32014 33.8204 6.76418 33.8204 6.11557 33.8204ZM6.67153 36.0442C6.76419 35.6736 6.85684 35.2103 7.04216 34.8397C7.13482 35.2103 7.32014 35.6736 7.41279 36.0442C7.13482 36.0442 6.9495 36.0442 6.67153 36.0442Z" fill="#27282A"/>
<path d="M13.2503 35.1177C13.2503 34.469 12.6017 33.8204 11.9531 33.8204C11.1191 33.8204 10.3779 33.8204 9.54395 33.8204V37.7121C10.0072 37.7121 10.3779 37.7121 10.8412 37.7121C10.8412 37.3415 10.8412 36.9708 10.8412 36.6002C10.9338 36.6002 11.1191 36.6002 11.2118 36.6002C11.3971 36.9708 11.5824 37.3415 11.7678 37.7121C12.231 37.7121 12.6943 37.7121 13.1576 37.7121C12.8797 37.2488 12.6943 36.8782 12.4164 36.4149C12.509 36.3222 12.509 36.3222 12.6017 36.2296C13.065 36.0442 13.343 35.581 13.2503 35.1177ZM12.0457 35.303C12.0457 35.4883 11.8604 35.581 11.7678 35.581C11.4898 35.581 11.2118 35.581 10.9338 35.581C10.9338 35.3956 10.9338 35.1177 10.9338 34.9323C11.0265 34.9323 11.2118 34.9323 11.3045 34.9323C11.3971 34.9323 11.5824 34.9323 11.6751 34.9323C11.8604 34.9323 12.0457 35.1177 12.0457 35.303Z" fill="#27282A"/>
<path d="M13.6209 34.9323C13.9915 34.9323 14.4548 34.9323 14.8254 34.9323C14.8254 35.8589 14.8254 36.7855 14.8254 37.6194C15.2887 37.6194 15.752 37.6194 16.2153 37.6194C16.2153 36.6929 16.2153 35.7663 16.2153 34.9323C16.5859 34.9323 17.0492 34.9323 17.4199 34.9323C17.4199 34.5617 17.4199 34.1911 17.4199 33.8204C16.1226 33.8204 14.8254 33.8204 13.5282 33.8204C13.6209 34.1911 13.6209 34.5617 13.6209 34.9323Z" fill="#27282A"/>
<path d="M30.2994 33.8204C29.8361 33.8204 29.4654 33.8204 29.0022 33.8204C29.0022 34.3764 29.0022 34.9323 29.0022 35.3956C28.5389 34.8397 28.1682 34.2837 27.7049 33.8204C27.2416 33.8204 26.871 33.8204 26.4077 33.8204C26.4077 35.1177 26.4077 36.4149 26.4077 37.7121C26.871 37.7121 27.2416 37.7121 27.7049 37.7121C27.7049 37.1561 27.7049 36.6002 27.7049 36.1369C28.1682 36.6929 28.5389 37.2488 29.0022 37.7121C29.4654 37.7121 29.8361 37.7121 30.2994 37.7121C30.2067 36.4149 30.2994 35.1177 30.2994 33.8204Z" fill="#27282A"/>
<path d="M35.3956 35.3956C34.9323 34.8397 34.5617 34.2837 34.0984 33.8204C33.6351 33.8204 33.2644 33.8204 32.8011 33.8204C32.8011 35.1177 32.8011 36.4149 32.8011 37.7121C33.2644 37.7121 33.6351 37.7121 34.0984 37.7121C34.0984 37.1561 34.0984 36.6002 34.0984 36.1369C34.5617 36.6929 34.9323 37.2488 35.3956 37.7121C35.8589 37.7121 36.2295 37.7121 36.6928 37.7121C36.6928 36.4149 36.6928 35.1177 36.6928 33.8204C36.2295 33.8204 35.8589 33.8204 35.3956 33.8204C35.3956 34.3764 35.3956 34.9323 35.3956 35.3956Z" fill="#27282A"/>
<path d="M40.5845 34.9323C40.5845 34.8397 40.5845 34.747 40.5845 34.6544C40.5845 34.3764 40.5845 34.0984 40.5845 33.8204C39.4726 33.8204 38.3607 33.8204 37.2488 33.8204C37.2488 35.1177 37.2488 36.4149 37.2488 37.7121C38.3607 37.7121 39.4726 37.7121 40.5845 37.7121C40.5845 37.5268 40.5845 37.3415 40.5845 37.1561C40.5845 36.9708 40.5845 36.8782 40.5845 36.6929C39.8432 36.6929 39.1946 36.6929 38.4533 36.6929C38.4533 36.6002 38.4533 36.4149 38.4533 36.3222C39.0093 36.3222 39.6579 36.3222 40.2139 36.3222C40.2139 36.0442 40.2139 35.6736 40.2139 35.3956C39.6579 35.3956 39.0093 35.3956 38.4533 35.3956C38.4533 35.303 38.4533 35.2103 38.4533 35.025C39.1946 34.9323 39.9359 34.9323 40.5845 34.9323Z" fill="#27282A"/>
<path d="M41.0479 33.8204C41.0479 34.1911 41.0479 34.5617 41.0479 34.9323C41.4185 34.9323 41.8818 34.9323 42.2524 34.9323C42.2524 35.8589 42.2524 36.7855 42.2524 37.6194C42.7157 37.6194 43.179 37.6194 43.6423 37.6194C43.6423 36.6929 43.6423 35.7663 43.6423 34.9323C44.0129 34.9323 44.4762 34.9323 44.8469 34.9323C44.8469 34.5617 44.8469 34.1911 44.8469 33.8204C43.6423 33.8204 42.3451 33.8204 41.0479 33.8204Z" fill="#27282A"/>
<path d="M48.4605 33.8204C48.3678 34.3764 48.2751 34.9323 48.0898 35.4883C47.8119 35.025 47.6265 34.469 47.4412 33.9131C47.2559 34.469 46.9779 34.9323 46.7926 35.4883C46.6999 34.9323 46.6073 34.3764 46.422 33.8204C45.9587 33.8204 45.588 33.8204 45.1248 33.8204C45.4027 35.1177 45.588 36.4149 45.866 37.7121C46.2367 37.7121 46.6073 37.7121 46.8853 37.7121C47.0706 37.3415 47.1632 36.9708 47.3486 36.6929C47.5339 37.0635 47.6265 37.3415 47.8119 37.7121C48.1825 37.7121 48.5531 37.7121 48.9238 37.7121C49.2017 36.4149 49.3871 35.1177 49.665 33.9131C49.2944 33.8204 48.9238 33.8204 48.4605 33.8204Z" fill="#27282A"/>
<path d="M57.9117 35.303C57.9117 35.2103 57.9117 35.1177 57.9117 35.025C57.819 34.747 57.7263 34.469 57.541 34.2837C57.2631 34.0058 56.8924 33.8204 56.5218 33.8204C56.1511 33.8204 55.7805 33.8204 55.4099 33.8204C55.0392 33.8204 54.6686 33.8204 54.298 33.8204C54.298 35.1177 54.298 36.4149 54.298 37.7121C54.7613 37.7121 55.1319 37.7121 55.5952 37.7121C55.5952 37.3415 55.5952 36.9708 55.5952 36.6002C55.6878 36.6002 55.8732 36.6002 55.9658 36.6002C56.1511 36.9708 56.3365 37.3415 56.5218 37.7121C56.9851 37.7121 57.4484 37.7121 57.9117 37.7121C57.6337 37.2488 57.3557 36.8782 57.1704 36.4149C57.541 36.1369 57.819 35.7663 57.9117 35.303ZM56.6144 35.3956C56.6144 35.4883 56.4291 35.581 56.3365 35.581C56.0585 35.581 55.7805 35.581 55.5025 35.581C55.5025 35.3956 55.5025 35.1177 55.5025 34.9323C55.7805 34.9323 56.0585 34.9323 56.3365 34.9323C56.5218 34.9323 56.7071 35.2103 56.6144 35.3956Z" fill="#27282A"/>
<path d="M62.2667 33.8204C61.7107 33.8204 61.1548 33.8204 60.5988 33.8204C60.2282 34.1911 59.9502 34.6544 59.6722 35.025C59.6722 34.6544 59.6722 34.1911 59.6722 33.8204C59.2089 33.8204 58.8383 33.8204 58.375 33.8204C58.375 35.1177 58.375 36.4149 58.375 37.7121C58.8383 37.7121 59.2089 37.7121 59.6722 37.7121C59.6722 37.2488 59.6722 36.7855 59.6722 36.3222C59.9502 36.7855 60.3208 37.2488 60.5988 37.7121C61.1548 37.7121 61.7107 37.7121 62.2667 37.7121C61.8034 37.0635 61.2474 36.4149 60.7841 35.6736C61.2474 35.025 61.7107 34.469 62.2667 33.8204Z" fill="#27282A"/>
<path d="M62.8226 36.6002C62.8226 36.6928 62.8226 36.6928 62.8226 36.7855C62.9153 36.7855 63.008 36.7855 63.1006 36.7855C63.1006 37.0635 63.1006 37.3414 63.1006 37.6194C63.1933 37.6194 63.1933 37.6194 63.2859 37.6194C63.2859 37.3414 63.2859 37.0635 63.2859 36.7855C63.3786 36.7855 63.4712 36.7855 63.5639 36.7855C63.5639 36.6928 63.5639 36.6928 63.5639 36.6002C63.3786 36.6002 63.1006 36.6002 62.8226 36.6002Z" fill="#27282A"/>
<path d="M64.5831 36.6002C64.4904 36.8781 64.4904 37.1561 64.3977 37.4341C64.3051 37.1561 64.3051 36.8781 64.2124 36.6002C64.1198 36.6002 64.0271 36.6002 63.9344 36.6002C63.9344 36.9708 63.9344 37.2488 63.9344 37.6194C64.0271 37.6194 64.0271 37.6194 64.1198 37.6194C64.1198 37.3414 64.1198 37.0635 64.1198 36.7855C64.2124 37.0635 64.2124 37.3414 64.3051 37.6194C64.3977 37.6194 64.4904 37.6194 64.4904 37.6194C64.5831 37.3414 64.5831 37.0635 64.6757 36.7855C64.6757 37.0635 64.6757 37.3414 64.6757 37.6194C64.7684 37.6194 64.861 37.6194 64.861 37.6194V36.6002C64.7684 36.6002 64.6757 36.6002 64.5831 36.6002Z" fill="#27282A"/>
</svg>
