<svg width="91" height="23" viewBox="0 0 91 23" fill="none" xmlns="http://www.w3.org/2000/svg">
<path d="M29.6751 6.73599e-05C26.2853 -0.00452582 24.0404 1.82441 23.7246 4.5593C23.6075 5.56549 23.4969 6.45463 23.4969 6.45463H67.6019C67.6019 6.45463 67.6848 5.78842 67.7492 5.25367C68.0808 2.49857 66.9373 0.000471455 62.7778 0.000471455V0.000794718C62.7778 0.000794718 31.4621 0.00202046 29.6751 0V6.73599e-05ZM2.75838 0.000862078L1.98424 6.45475H21.9859L22.757 0.000862078L2.75799 0.00091595L2.75838 0.000862078ZM69.8994 0.000862078L69.127 6.45475H90.8103C90.8103 6.45475 90.8367 6.22132 90.9327 5.46163C91.4604 1.2254 88.7904 0.000862078 86.2126 0.000862078L69.8994 0.00091595V0.000862078ZM68.8283 8.91203L67.1387 22.9973L74.6195 22.9946L76.3105 8.91473L68.8283 8.91177V8.91203ZM83.04 8.91203L81.3477 22.9973L88.8286 22.9946L90.5195 8.91473L83.04 8.91177V8.91203ZM1.69251 8.91406L0 22.998H20.0003L20.7372 16.8881L8.21344 16.8868L8.5303 14.2521H21.0491L21.6899 8.91446H1.69356L1.69251 8.91406ZM23.2035 8.91406C22.6548 12.5899 24.4523 14.2517 26.9998 14.2517C28.3855 14.2517 37.1191 14.2477 37.1191 14.2477L36.8033 16.8864L22.2481 16.8877L21.5152 22.9976C21.5152 22.9976 37.3612 23.003 38.0034 22.9976C38.5337 22.9585 42.2406 22.8548 43.5025 19.7514C43.9118 18.7439 44.2736 15.1313 44.375 14.3729C44.9579 9.96833 41.9787 8.9181 39.6325 8.9181C38.3389 8.9181 25.7576 8.91406 23.2035 8.91406ZM46.487 8.91406L44.7974 22.998H52.2743L53.327 14.2521H62.7186C65.3819 14.2521 66.8136 12.7863 67.0795 10.8179C67.2137 9.82474 67.3097 8.91446 67.3097 8.91446H46.487V8.91406Z" fill="black"/>
</svg>
