<svg width="63" height="51" viewBox="0 0 63 51" fill="none" xmlns="http://www.w3.org/2000/svg">
<path fill-rule="evenodd" clip-rule="evenodd" d="M31.5614 7.10103C32.1594 7.0054 33.2833 7.07712 34.0718 7.65086C34.9331 8.29632 35.6264 9.37242 35.5062 10.6159C35.3389 12.1219 34.9803 13.0785 33.689 14.1304C32.1112 15.4216 30.5809 15.493 29.8637 15.4452C29.3617 15.3974 27.927 15.0866 27.1381 13.7953C26.6361 12.9108 26.8035 11.6674 26.9469 11.1175C27.0907 10.5677 27.9991 9.10912 28.9314 8.36804C29.8634 7.6512 30.9873 7.17275 31.5614 7.10103ZM0 50.4736V48.4891L11.5007 47.1978C11.5007 47.1978 9.1337 46.2652 8.55996 44.5197C7.93841 42.6786 9.42091 40.8375 10.6162 40.6231C12.2418 40.3116 14.3701 40.1446 14.3701 40.1446L16.4741 40.3359L62.1181 45.5722V50.4736H0ZM19.5105 39.4991L49.35 36.0318L56.3315 38.686L56.3554 43.4918L19.5105 39.4991Z" fill="black"/>
<path fill-rule="evenodd" clip-rule="evenodd" d="M62.1181 0H54.2753L57.4554 32.3496C57.4554 32.3496 57.384 32.8995 57.0016 32.9715C56.6191 33.0436 56.547 32.6607 56.547 32.6607L55.1366 27.3048L49.3261 25.2243L43.2769 30.8907L48.2982 34.119L43.4682 34.6931L40.7426 32.9473L38.6143 35.219L33.9762 35.7688L38.017 31.5607L31.8005 27.9739L28.8594 28.4284C28.8594 28.4284 31.3941 29.1695 32.4217 30.0301C33.4261 30.8907 33.6409 31.7991 33.4021 33.2816C33.1628 34.7641 31.5372 35.9358 31.5372 35.9358L22.0449 37.0836L20.9452 36.5338C20.9452 36.5338 19.5344 35.8166 19.463 34.286C19.3913 32.8988 20.9452 30.7234 20.9452 30.7234L18.5304 30.0301V32.1816L13.7007 32.9227V34.5964L18.0523 34.0224V35.9833L13.7724 36.6045L13.7963 38.0156L10.9273 38.3981V31.7032L9.97107 31.8466V30.4362L49.3264 23.5021L54.7544 25.5348L52.9615 18.1701L49.3988 16.8311L46.9119 20.7045L46.8887 22.8085L44.9756 23.191V21.1109L43.35 19.4849L41.2456 19.0068C41.2456 19.0068 41.7001 19.294 41.8675 19.3893C42.3934 19.796 42.5368 20.2021 42.5368 20.8479C42.5368 21.7328 41.3658 22.2109 41.3658 22.2109L43.3503 23.5021L41.3419 23.9085L39.0702 22.7371L39.0463 24.2913L37.3486 24.6021V20.0603L35.986 19.6536C35.986 19.6536 35.986 22.7859 35.9621 23.9338C35.9382 24.8183 34.9816 25.0577 34.9816 25.0577C34.9816 25.0577 32.7344 25.6795 31.9452 25.4402C31.1799 25.225 31.1799 24.4361 31.1799 24.4361V21.256L30.4853 20.8014L30.4614 22.1883L29.1466 22.4991L29.1705 26.0853L27.5206 26.3967L27.5445 22.8819L26.2055 23.121L26.1816 22.2364L25.3445 21.8775V26.7553L23.7664 27.0419L21.5907 25.1533L21.6146 27.4247L20.0843 27.7119L20.1082 23.623L18.9129 23.2644V24.3641L16.9044 24.89V25.7506L18.6499 25.3681V26.3725L16.9044 26.755V27.5442L18.8651 27.2328L18.889 27.9267L15.4219 28.5479L15.4458 25.0812C15.4458 25.0812 15.0394 24.9856 13.9634 24.8422C14.4654 25.1769 14.3458 25.4398 14.3458 25.4398L13.557 26.2291C13.557 26.2291 13.2458 25.8223 12.4809 25.9897C11.8832 26.1089 11.6202 26.6829 11.6202 27.2328C11.6442 27.8068 11.9549 28.524 12.7199 28.4045C13.3893 28.2853 13.724 27.6153 13.724 27.6153L14.6566 28.0937L14.1785 28.787C14.1785 28.787 11.692 29.2648 11.2856 29.3129C10.4485 29.0021 10.2573 28.285 10.2334 27.6153C10.1617 26.324 10.9984 25.4395 10.9984 25.4395L10.066 24.9136V23.9095L49.3497 15.2065L52.578 16.4496L51.2867 11.2613L48.6325 10.3765L48.6086 14.1543L47.4615 14.3933V11.7155C47.4369 10.7832 47.2221 10.592 46.8874 10.5677C46.3133 10.5438 46.1463 11.0219 46.1463 11.8112V14.7041L44.8072 14.991L44.7833 8.84617L37.0604 5.59431C37.0604 5.59431 37.4429 5.95289 37.8735 6.47915C38.8294 7.65087 39.284 8.91788 38.9254 11.1415C38.5907 13.3411 37.3469 14.8714 37.3469 14.8714C36.5345 16.258 34.5732 17.5731 34.5732 17.5731C34.5732 17.5731 29.8631 18.697 28.5722 18.8166C27.3048 18.9361 25.655 17.7647 24.8422 16.9516C24.0294 16.1385 23.5752 15.0866 23.3358 14.0583C23.0967 13.0065 23.8139 10.2088 23.8139 10.2088L22.0684 9.27614C22.0684 9.27614 22.3795 9.94584 22.4987 10.3044C22.6183 10.6391 22.8334 11.1172 22.5466 12.4802C22.3792 13.4603 21.8294 14.058 21.8294 14.058L17.7651 19.056L22.6425 18.1233V20.1078L11.2374 22.6664V21.3752C11.2374 21.3752 18.1236 13.5327 18.53 12.959C19.1516 12.0984 19.3906 11.3334 18.6018 10.7115C17.789 10.066 16.928 10.3529 16.0435 11.094C15.2546 11.7637 14.8479 13.2458 14.8479 13.2458L11.3569 13.8199L12.2415 11.1421C13.2455 8.77511 16.3539 7.69902 17.7647 7.53168C18.5536 7.43605 19.8449 7.89026 19.8449 7.89026L24.0291 9.75525C24.0291 9.75525 24.1725 9.5401 24.3876 9.15761C24.9617 8.08151 27.52 5.3081 28.4523 4.85389C30.1978 4.01685 32.0385 3.73031 33.5692 3.92156C34.5018 4.04109 36.6055 4.85389 36.6055 4.85389L44.783 8.27309L44.7591 5.92998L46.1695 5.42796L50.2823 7.17342L48.5847 0.0484758L11.9314 0C11.9314 0 5.90608 32.8995 5.78655 33.6176C5.69093 34.1436 5.42796 34.3587 4.87813 34.2388C4.40001 34.1196 4.51954 33.3543 4.51954 33.3543L5.95389 0H0V47.6281L3.18014 47.2456L3.15624 39.2601C3.15624 39.2601 3.22796 38.6143 3.82594 38.686C4.37577 38.7341 4.99732 38.782 5.23638 38.8533C5.61888 38.9725 5.76231 39.2601 5.73874 39.6904V46.8635L8.75121 46.481C8.75121 46.481 7.67544 46.0742 7.31686 44.1372C7.22123 43.5399 7.14952 42.6076 7.93841 41.3402C8.7273 40.1204 10.2576 39.6426 10.7835 39.5705C11.2859 39.4991 49.5652 34.9085 49.5652 34.9085L56.3554 37.6102V36.9644C56.3554 36.9644 56.3554 36.3432 56.9773 36.3432C57.8618 36.3432 57.9339 36.3432 58.4117 36.3193C59.2009 36.3193 59.1288 37.0126 59.1288 37.0126L59.1049 43.8268L62.1177 44.1375V0H62.1181ZM4.61483 37.0123C2.86937 36.7971 3.30001 35.052 3.30001 35.052L6.43201 35.554C6.43201 35.5537 6.43201 37.2035 4.61483 37.0123ZM57.5989 35.1951C56.3319 35.4345 55.8537 34.1432 55.8537 34.1432L58.7467 33.4732C58.7467 33.4735 59.2012 34.8846 57.5989 35.1951ZM43.9682 10.6401L42.9884 10.8792V9.42057L41.7924 9.70744V15.7782L42.9884 15.4196V12.0984C43.3709 11.9788 43.9682 11.7876 43.9682 11.7876V10.6401Z" fill="black"/>
<path fill-rule="evenodd" clip-rule="evenodd" d="M32.8767 20.1795L34.2394 20.8728C34.2394 20.8728 34.2633 23.3118 34.2633 23.6701C34.2393 24.029 34.072 24.2677 33.5939 24.3634C33.1154 24.459 32.8767 24.4351 32.8767 23.7893V20.1795ZM39.2363 20.3233C39.2363 20.3233 39.9296 20.2516 40.169 20.3233C40.4084 20.4189 40.5276 20.6344 40.4798 20.9452C40.4323 21.2559 40.2171 21.3516 40.0259 21.3994C39.8586 21.4711 39.2367 21.567 39.2367 21.567V20.3233H39.2363ZM44.3529 17.932L46.6246 18.4105L45.8353 19.6297L44.3529 17.932ZM21.0171 22.4273L23.9817 23.3596L23.9582 25.2967L21.0171 22.4273ZM23.7669 31.7284C24.1255 31.4412 25.4642 30.7957 26.6121 30.724C27.9747 30.6287 29.0508 30.8199 29.7922 31.4179C30.5333 32.0152 30.5811 32.7324 30.103 33.3543C29.6488 33.9762 29.2659 34.287 28.1663 34.6934C27.0905 35.0758 25.5363 35.1472 24.8427 34.9799C23.9821 34.8126 23.4319 34.6213 23.0494 34.1432C22.3322 33.2587 23.0494 32.3021 23.7669 31.7284ZM36.5828 26.8984L42.1532 27.7829L40.4794 29.4085L36.5828 26.8984ZM51.1913 10.7832L50.402 7.72255L46.1939 5.95319V10.0178C46.1939 10.0178 46.5293 9.46801 47.2936 9.3963C48.0828 9.32458 48.5135 9.85051 48.5135 9.85051L51.1913 10.7832Z" fill="black"/>
</svg>
