<svg width="101" height="33" viewBox="0 0 101 33" fill="none" xmlns="http://www.w3.org/2000/svg">
<path d="M24.6472 11.5834H12.9722V15.0117H21.3115C20.9409 19.9226 16.8639 21.9611 13.0649 21.9611C8.15396 21.9611 3.89166 18.0695 3.89166 12.6953C3.89166 7.41373 7.96864 3.42941 13.0649 3.42941C16.9565 3.42941 19.3657 5.93119 19.3657 5.93119L21.7748 3.42941C21.7748 3.42941 18.6244 0.00103958 12.9722 0.00103958C5.55952 -0.0916191 0 6.02385 0 12.6953C0 19.1814 5.28154 25.4822 13.0649 25.4822C19.9216 25.4822 24.9252 20.8492 24.9252 13.8998C24.8325 12.4173 24.6472 11.5834 24.6472 11.5834Z" fill="black"/>
<path d="M34.2837 9.08173C29.4655 9.08173 26.0371 12.8807 26.0371 17.2357C26.0371 21.6833 29.3728 25.4823 34.3764 25.4823C38.824 25.4823 42.5304 22.0539 42.5304 17.3283C42.4377 11.8615 38.1754 9.08173 34.2837 9.08173ZM34.2837 12.2321C36.6002 12.2321 38.9167 14.178 38.9167 17.2357C38.9167 20.2008 36.6929 22.2393 34.2837 22.2393C31.6893 22.2393 29.5581 20.1081 29.5581 17.2357C29.5581 14.3633 31.5966 12.2321 34.2837 12.2321Z" fill="black"/>
<path d="M52.1668 9.08173C47.3485 9.08173 43.9202 12.8807 43.9202 17.2357C43.9202 21.6833 47.2559 25.4823 52.2594 25.4823C56.7071 25.4823 60.4134 22.0539 60.4134 17.3283C60.4134 11.8615 56.1511 9.08173 52.1668 9.08173ZM52.2594 12.2321C54.5759 12.2321 56.8924 14.178 56.8924 17.2357C56.8924 20.2008 54.6686 22.2393 52.2594 22.2393C49.665 22.2393 47.5339 20.1081 47.5339 17.2357C47.5339 14.3633 49.5723 12.2321 52.2594 12.2321Z" fill="black"/>
<path d="M69.772 9.08173C65.3244 9.08173 61.896 12.9734 61.896 17.2357C61.896 22.1466 65.8803 25.4823 69.6793 25.4823C71.9958 25.4823 73.293 24.5557 74.2196 23.4438V25.1117C74.2196 27.9841 72.4591 29.6519 69.8646 29.6519C67.3629 29.6519 66.0656 27.7988 65.695 26.6869L62.5446 27.9841C63.6565 30.3932 65.8803 32.8023 69.9573 32.8023C74.3123 32.8023 77.648 30.0226 77.648 24.2777V9.54502H74.2196V10.9349C73.1077 9.823 71.7178 9.08173 69.772 9.08173ZM70.05 12.2321C72.1811 12.2321 74.4049 14.0853 74.4049 17.2357C74.4049 20.4787 72.1811 22.2393 69.9573 22.2393C67.6408 22.2393 65.417 20.2934 65.417 17.3283C65.5097 14.1779 67.7335 12.2321 70.05 12.2321Z" fill="black"/>
<path d="M92.9366 8.98895C88.767 8.98895 85.246 12.3247 85.246 17.1429C85.246 22.3318 89.1376 25.3895 93.3073 25.3895C96.7356 25.3895 98.8668 23.5364 100.164 21.7758L97.2916 19.9227C96.5503 21.0346 95.3458 22.1465 93.3073 22.1465C90.9908 22.1465 89.9716 20.8493 89.323 19.6447L100.349 15.1044L99.7934 13.8072C98.6815 11.2128 96.1797 8.98895 92.9366 8.98895ZM93.0293 12.1393C94.5118 12.1393 95.6237 12.9733 96.087 13.8999L88.767 16.9576C88.3964 14.6411 90.7128 12.1393 93.0293 12.1393Z" fill="black"/>
<path d="M80.0571 24.926H83.6708V0.834717H80.0571V24.926Z" fill="black"/>
</svg>
