<svg width="101" height="14" viewBox="0 0 101 14" fill="none" xmlns="http://www.w3.org/2000/svg">
<path fill-rule="evenodd" clip-rule="evenodd" d="M56.707 3.49673L55.2245 10.5388H58.1896L58.8382 7.57371C59.0235 6.73979 59.9501 5.8132 62.2665 5.8132L62.7298 3.49673C62.7298 3.49673 61.1546 3.21876 59.9501 4.14534C59.8574 4.238 59.5794 4.42332 59.5794 4.05269L59.6721 3.49673H56.707Z" fill="#27282A"/>
<path fill-rule="evenodd" clip-rule="evenodd" d="M83.8561 0.624481L83.4855 2.29234H86.4505L86.9138 0.624481H83.8561Z" fill="#27282A"/>
<path fill-rule="evenodd" clip-rule="evenodd" d="M83.3 3.49701H86.2651L84.7826 10.5391H81.7249L83.3 3.49701Z" fill="#27282A"/>
<path fill-rule="evenodd" clip-rule="evenodd" d="M97.6623 0.624481L97.2916 2.29234H100.257L100.627 0.624481H97.6623Z" fill="#27282A"/>
<path fill-rule="evenodd" clip-rule="evenodd" d="M97.0135 3.49701H100.071L98.5887 10.5391H95.531L97.0135 3.49701Z" fill="#27282A"/>
<path fill-rule="evenodd" clip-rule="evenodd" d="M87.1918 3.49673L85.7092 10.5388H88.767L89.5082 6.73978C89.6935 5.62787 90.8055 5.16458 91.4541 5.16458C92.1027 5.16458 92.7513 5.53522 92.4733 6.9251L91.732 10.5388H94.6971L95.531 6.36915C95.809 5.07192 95.7164 3.21875 93.2146 3.21875C91.2687 3.21875 90.6201 3.86736 90.2495 4.14534C90.0642 4.238 89.9715 4.14534 89.9715 3.96002L90.0642 3.49673H87.1918Z" fill="#27282A"/>
<path fill-rule="evenodd" clip-rule="evenodd" d="M73.8489 0.624396L71.7178 10.5389H74.7755L75.5168 6.73986C75.7021 5.62796 76.814 5.16467 77.4626 5.16467C78.1112 5.16467 78.7598 5.5353 78.4819 6.92518L77.7406 10.5389H80.7983L81.6323 6.36923C81.9102 5.07201 81.8176 3.21884 79.3158 3.21884C77.37 3.21884 76.7213 3.86745 76.3507 4.14542C76.1654 4.23808 76.0727 4.14542 76.0727 3.96011L76.814 0.531738H73.8489V0.624396Z" fill="#27282A"/>
<path fill-rule="evenodd" clip-rule="evenodd" d="M5.09622 0.624481L3.42837 8.50047H8.61725L8.15396 10.539H0L2.03849 0.624481H5.09622Z" fill="#27282A"/>
<path fill-rule="evenodd" clip-rule="evenodd" d="M31.5039 3.31149C30.392 3.31149 29.0948 3.86744 28.3535 4.60871C27.9829 3.58947 26.6857 3.31149 25.7591 3.31149C24.5545 3.31149 23.5353 3.86744 22.9793 4.23808L23.1647 3.40415H20.1996L18.717 10.5389H21.6821L22.516 6.73986C22.8867 5.72061 23.6279 5.34998 24.2766 5.34998C24.9252 5.34998 25.4811 5.72061 25.2031 6.73986L24.3692 10.5389H27.3343L28.0756 6.73986C28.4462 5.72061 29.1875 5.34998 29.8361 5.34998C30.4847 5.34998 31.0406 5.72061 30.7627 6.73986L29.9287 10.5389H32.8938L33.9131 5.72062C34.469 3.77478 32.7085 3.31149 31.5039 3.31149Z" fill="#27282A"/>
<path fill-rule="evenodd" clip-rule="evenodd" d="M41.233 3.21892C39.4725 3.21892 38.9165 3.86753 38.2679 4.42348L39.1018 0.624481H36.1368L34.0056 10.539H36.9707L37.156 9.79769C37.712 10.261 38.5459 10.8169 40.0284 10.8169C41.511 10.8169 44.2907 9.89034 44.754 6.73995C45.2173 3.58956 42.9935 3.21892 41.233 3.21892ZM41.4183 7.11059C41.1403 8.40781 40.3064 9.24174 39.1945 9.24174C38.1753 9.24174 37.6193 8.40781 37.8046 7.11059C38.0826 5.81337 39.0092 4.97944 40.2137 4.97944C41.233 5.0721 41.6036 5.81337 41.4183 7.11059Z" fill="#27282A"/>
<path fill-rule="evenodd" clip-rule="evenodd" d="M51.1475 3.31149C48.4604 3.31149 45.7733 4.14542 45.2173 7.1105C44.6614 10.0756 46.8852 10.9095 49.5723 10.9095C52.2594 10.9095 54.9465 9.7976 55.4098 7.1105C56.0584 4.05276 53.9273 3.31149 51.1475 3.31149ZM52.0741 7.1105C51.7961 8.40772 50.9622 9.24164 49.8503 9.24164C48.831 9.24164 48.2751 8.40772 48.4604 7.1105C48.7384 5.81327 49.665 4.97935 50.8695 4.97935C51.8888 4.97935 52.3521 5.81327 52.0741 7.1105Z" fill="#27282A"/>
<path fill-rule="evenodd" clip-rule="evenodd" d="M15.0107 3.21875C11.2117 3.21875 10.3777 4.70129 10.1924 5.62788H13.2502C13.4355 4.97927 14.1767 4.8866 14.7327 4.8866C15.2886 4.8866 15.9373 5.07192 15.6593 5.99851C10.6557 6.09117 9.35849 7.11041 8.98786 8.68561C8.70988 10.2608 10.0071 10.8168 11.675 10.8168C13.3428 10.8168 14.2694 10.4461 14.918 9.98283L14.7327 10.5388H17.6978L18.6244 5.81319C19.1803 3.58938 16.8638 3.21875 15.0107 3.21875ZM15.196 8.12966C15.1033 8.68561 14.2694 9.33422 13.0648 9.33422C11.9529 9.33422 11.9529 8.87093 12.0456 8.50029C12.0456 8.12966 12.5089 7.48105 15.3813 7.38839L15.196 8.12966Z" fill="#27282A"/>
<path fill-rule="evenodd" clip-rule="evenodd" d="M69.4014 3.49681L69.216 4.14542C68.3821 3.58947 68.0115 3.31149 66.7143 3.31149C65.417 3.31149 62.8226 4.05276 62.174 6.83252C61.5254 9.61228 63.0079 10.6315 64.5831 10.6315C66.0656 10.6315 67.1775 10.3535 68.0115 9.7976C67.7335 11.3728 66.9922 12.0214 65.8803 12.0214C64.8611 12.0214 64.6758 11.6508 64.4905 11.0948H61.4327C61.3401 13.226 62.2666 13.6893 65.5097 13.6893C68.8454 13.6893 70.4206 12.1141 70.7912 10.5389L72.2738 3.68213H69.4014V3.49681ZM68.5674 7.01784C68.3821 7.75911 68.1041 8.96367 66.4363 8.87101C65.417 8.87101 65.2317 7.66645 65.417 7.01784C65.5097 6.46189 65.8803 5.07201 67.4555 5.07201C69.0307 5.07201 68.6601 6.55455 68.5674 7.01784Z" fill="#27282A"/>
</svg>
