<svg width="66" height="66" viewBox="0 0 66 66" fill="none" xmlns="http://www.w3.org/2000/svg">
<path fill-rule="evenodd" clip-rule="evenodd" d="M7.71326 37.6401C3.98929 37.6401 0.970337 34.6246 0.970337 30.9051C0.970337 27.1856 3.98929 24.1697 7.71326 24.1697C9.07328 24.1697 10.3395 24.572 11.3989 25.264L29.7684 37.6401H7.71326ZM9.57695 22.4841C6.45733 20.4591 5.57051 16.29 7.5965 13.1718C9.62249 10.0539 13.794 9.16738 16.9133 11.1923C18.0108 11.9022 18.8768 12.9175 19.4046 14.1134L28.7922 35.5125L9.57695 22.4841ZM58.2706 37.6467C62.0035 37.6467 65.0296 34.6284 65.0296 30.9048C65.0296 27.1811 62.0035 24.1629 58.2706 24.1629C56.9078 24.1629 55.6389 24.5655 54.5771 25.2582L36.1651 37.647H58.2706V37.6467ZM56.4072 22.4837C59.5337 20.4571 60.4226 16.2835 58.3922 13.1625C56.3617 10.0415 52.1813 9.15437 49.0549 11.1814C47.9549 11.8914 47.0868 12.9079 46.5577 14.1055L37.1489 35.5248L56.4072 22.4837ZM35.6714 9.81178C35.19 10.1847 33.8704 10.3874 34.1566 12.7369L37.0068 32.6705L46.5125 10.9417C48.0321 7.53892 46.4971 3.55234 43.0851 2.03755C39.6724 0.522422 35.6738 2.05262 34.1546 5.45541C33.6619 6.55427 33.4746 7.76559 33.6122 8.96194L35.4036 8.95886C36.4189 9.00919 36.9533 9.27901 35.6714 9.81178ZM19.4665 10.9472C17.9504 7.54748 19.482 3.56432 22.8871 2.0509C26.2927 0.537488 30.2827 2.06631 31.7988 5.46602C32.3337 6.65988 32.5072 7.98422 32.2981 9.27558L28.9524 32.6568L19.4665 10.9472ZM60.7407 63.651C59.6488 64.0955 58.0254 64.5457 56.5209 64.5457C49.6441 64.5457 44.0688 59.2662 44.0688 52.7541C44.0688 46.2416 49.6441 40.9625 56.5209 40.9625C58.0008 40.9625 59.6238 41.323 60.7407 41.8353V46.3433C59.4879 45.519 58.0206 45.0807 56.5209 45.0829C52.2758 45.0829 48.8337 48.5172 48.8337 52.7538C48.8337 56.99 52.2758 60.4243 56.5209 60.4243C58.0717 60.4243 59.533 59.9661 60.7407 59.1776V63.651ZM19.3669 41.7329H23.9383V64.2633L9.86525 51.4109V63.7702H5.29385V41.2456L19.3669 54.098V41.7329ZM39.257 51.9936C40.6527 50.9596 41.8678 49.9728 41.8565 47.3702C41.8411 43.9448 39.0697 41.7116 35.6324 41.7116H26.5611V63.7918H36.7359C40.3397 63.7918 43.0817 61.058 43.0817 57.4656C43.0817 53.8738 40.1123 52.3059 39.257 51.9936ZM31.1572 45.0497L34.5552 45.0501C36.146 45.0501 37.4354 46.3354 37.4354 47.9211C37.4354 49.5064 36.146 50.7921 34.5552 50.7921H31.1572V45.0497ZM35.2941 60.4773H31.1579V54.0908L35.2944 54.072C37.0681 54.072 38.5058 55.506 38.5058 57.2748C38.5058 59.0437 37.0677 60.4773 35.2941 60.4773Z" fill="black"/>
</svg>
