<svg width="83" height="23" viewBox="0 0 83 23" fill="none" xmlns="http://www.w3.org/2000/svg">
<path d="M11.2117 0C10.0998 0 8.89523 0 7.78333 0C7.78333 4.72559 7.78333 7.78333 7.78333 12.5089C6.30079 7.87599 4.81825 4.81825 3.33571 0C2.03849 0 1.29722 0 0 0C0 7.41269 0 14.7327 0 22.1454C1.1119 21.9601 2.31647 21.8674 3.42837 21.6821C3.42837 17.0492 3.42837 14.1768 3.42837 9.6365C5.00357 14.1768 5.93015 16.8639 7.50535 21.2188C8.70991 21.1262 10.0071 20.9409 11.2117 20.7555C11.2117 13.8061 11.2117 6.9494 11.2117 0Z" fill="black"/>
<path d="M24.1839 0C20.9408 0 17.7904 0 14.5474 0C14.5474 6.76408 14.5474 13.6208 14.5474 20.3849C17.7904 20.1069 20.9408 19.829 24.1839 19.6436C24.1839 18.6244 24.1839 17.2345 24.1839 16.2153C22.0527 16.3079 20.1069 16.4932 17.9757 16.5859C17.9757 14.7327 17.9757 13.2502 17.9757 11.397C19.4583 11.397 21.1261 11.397 22.7013 11.397C22.7013 10.3778 22.7013 8.98789 22.7013 7.96864C21.1261 7.96864 19.5509 7.96864 17.9757 8.0613C17.9757 6.20813 17.9757 5.18888 17.9757 3.42837C18.9023 3.42837 19.8289 3.42837 20.7555 3.42837C20.9408 3.42837 21.1261 3.42837 21.2188 3.42837C21.4041 3.42837 21.5894 3.42837 21.6821 3.42837C22.4233 3.42837 23.2573 3.42837 23.9985 3.42837C24.1839 2.50178 24.1839 1.01925 24.1839 0Z" fill="black"/>
<path d="M37.1561 0.0927734C33.6351 0.0927734 30.0214 0.0927734 26.5004 0.0927734C26.5004 1.11202 26.5004 2.5019 26.5004 3.52114C26.6857 3.52114 26.7783 3.52114 26.9637 3.52114C27.427 3.52114 27.8902 3.52114 28.3535 3.52114C28.8168 3.52114 29.2801 3.52114 29.7434 3.52114C29.8361 3.52114 30.0214 3.52114 30.1141 3.52114C30.1141 8.988 30.1141 13.9916 30.1141 19.4584C31.226 19.4584 32.4305 19.3658 33.5424 19.3658C33.5424 13.8989 33.5424 8.89535 33.5424 3.52114C34.747 3.52114 35.9515 3.52114 37.1561 3.52114C37.1561 2.5019 37.1561 1.01936 37.1561 0.0927734Z" fill="black"/>
<path d="M49.0164 0C45.7733 0 42.6229 0 39.3799 0C39.3799 6.39345 39.3799 12.7869 39.3799 19.1803C39.7505 19.1803 40.1211 19.1803 40.4918 19.1803C41.2331 19.1803 42.067 19.1803 42.8082 19.1803C42.8082 16.4932 42.8082 13.9915 42.8082 11.3044C42.9936 11.3044 43.1789 11.3044 43.3642 11.3044C43.8275 11.3044 44.2908 11.3044 44.7541 11.3044C45.2174 11.3044 45.6807 11.3044 46.144 11.3044C46.6073 11.3044 47.0706 11.3044 47.5338 11.3044C47.5338 10.2851 47.5338 8.89523 47.5338 7.87599C47.0706 7.87599 46.6999 7.87599 46.2366 7.87599C45.7733 7.87599 45.31 7.87599 44.8467 7.87599C44.3835 7.87599 43.9202 7.87599 43.4569 7.87599C43.2715 7.87599 43.0862 7.87599 42.9009 7.87599C42.9009 6.11547 42.9009 5.18888 42.9009 3.42837C43.2715 3.42837 43.6422 3.42837 44.0128 3.42837C44.3834 3.42837 44.7541 3.42837 45.1247 3.42837C45.4954 3.42837 45.866 3.42837 46.2366 3.42837C47.1632 3.42837 48.0898 3.42837 49.0164 3.42837C49.0164 2.50178 49.0164 1.01925 49.0164 0Z" fill="black"/>
<path d="M51.2402 0.092659C51.2402 6.57876 51.2402 12.9722 51.2402 19.4583C54.298 19.551 57.541 19.7363 60.5988 19.9216C60.5988 18.9024 60.5988 17.5125 60.5988 16.4932C58.6529 16.4006 56.6144 16.2153 54.6686 16.1226C54.6686 10.5631 54.6686 5.55952 54.6686 0C53.6494 0.0926587 52.4448 0.092659 51.2402 0.092659Z" fill="black"/>
<path d="M63.4712 0.0927734C63.4712 6.7642 63.4712 13.4356 63.4712 20.107C64.5831 20.1997 65.7877 20.2924 66.8996 20.385C66.8996 13.6209 66.8996 6.85685 66.8996 0.0927734C65.8803 0.0927734 64.6758 0.0927734 63.4712 0.0927734Z" fill="black"/>
<path d="M69.9573 0.0927734C71.3472 3.42848 72.6444 6.85685 74.0343 10.4705C72.5517 13.8989 71.0692 17.3273 69.5867 20.663C70.7912 20.7557 72.0885 20.941 73.293 21.1263C74.1269 18.9951 74.9609 17.3273 75.7948 15.1961C76.6287 17.5126 77.4627 19.3658 78.2966 21.6822C79.5011 21.8676 81.0763 22.0529 82.2809 22.2382C80.7984 18.3465 79.2232 14.2695 77.7406 10.5632C79.2232 7.13483 80.7057 3.79912 82.1882 0.185432C80.9837 0.185432 79.6865 0.185432 78.3892 0.185432C77.4627 2.40924 76.814 3.89178 75.8875 6.02293C75.0535 3.79912 74.4976 2.40924 73.6637 0.185432C72.4591 0.0927738 71.1619 0.0927734 69.9573 0.0927734Z" fill="black"/>
</svg>
