<svg width="97" height="51" viewBox="0 0 97 51" fill="none" xmlns="http://www.w3.org/2000/svg">
<path d="M14.813 32.2451C14.813 32.9864 15.4616 33.5423 16.2029 33.5423C16.9441 33.5423 17.5927 32.9864 17.5927 32.2451C17.5927 31.5039 17.0368 30.9479 16.2029 30.9479C15.3689 30.9479 14.813 31.4112 14.813 32.2451ZM17.1295 32.2451C17.1295 32.8011 16.7588 33.1717 16.2029 33.1717C15.6469 33.1717 15.2763 32.8011 15.2763 32.2451C15.2763 31.6892 15.6469 31.3185 16.2029 31.3185C16.7588 31.2259 17.1295 31.6892 17.1295 32.2451Z" fill="#27282A"/>
<path d="M23.6155 14.6402L22.8742 26.2225H29.5456L39.3674 0.0927429H33.1593L28.7117 11.7677L29.4529 0.0927429H22.8742L13.0524 26.2225H19.2605L23.6155 14.6402Z" fill="#27282A"/>
<path d="M36.4951 26.2225L46.3169 0.0927429H40.1088L30.287 26.2225H36.4951Z" fill="#27282A"/>
<path d="M95.8893 15.752C95.7966 15.752 83.0097 19.273 68.277 23.2573L69.0183 21.2188H61.7909L64.2 14.8254H70.1302L71.9833 9.91448H66.0532L68.0917 4.35496H74.3925L76.0603 0H63.6441H63.5514H57.158L50.6719 7.87598L53.6369 0H47.3361L37.607 26.2224H43.8151L47.9848 15.2887L48.2627 26.2224H57.158C40.2941 30.7627 24.2641 35.1176 24.2641 35.1176C15.1836 37.7121 4.89849 32.1526 12.4038 17.2345C3.78659 27.427 -4.46003 40.9551 2.76734 47.1632C9.71674 53.1861 18.5193 49.665 24.4495 47.2559C30.3796 44.8468 96.2599 16.3079 96.2599 16.3079C96.8159 15.9373 96.7232 15.5667 95.8893 15.752ZM54.0076 10.8411L63.3661 0.555951L54.3782 24.4619L54.0076 10.8411Z" fill="#27282A"/>
<path d="M15.6469 31.5039V32.8937H16.0175V32.2451H16.1101L16.4808 32.8937H16.8514L16.4808 32.2451C16.6661 32.2451 16.8514 32.1525 16.8514 31.8745C16.8514 31.5039 16.6661 31.4112 16.2955 31.4112H15.6469V31.5039ZM16.3881 31.8745C16.3881 32.0598 16.2955 32.0598 16.2028 32.0598H16.0175V31.6892H16.2028C16.2955 31.6892 16.3881 31.7818 16.3881 31.8745Z" fill="#27282A"/>
<path d="M78.4695 2.59444C79.2107 2.59444 79.8593 2.03849 79.8593 1.29722C79.8593 0.555952 79.3034 0 78.4695 0C77.7282 0 77.0796 0.555952 77.0796 1.29722C77.0796 2.03849 77.6355 2.59444 78.4695 2.59444ZM78.4695 0.370634C79.0254 0.370634 79.3961 0.74127 79.3961 1.29722C79.3961 1.85317 79.0254 2.22381 78.4695 2.22381C77.9135 2.22381 77.5429 1.85317 77.5429 1.29722C77.4502 0.74127 77.9135 0.370634 78.4695 0.370634Z" fill="#27282A"/>
<path d="M78.2841 1.38996L78.6547 2.03857H79.0254L78.6547 1.38996C78.84 1.38996 79.0254 1.2973 79.0254 1.01932C79.0254 0.648689 78.84 0.55603 78.4694 0.55603H77.9135V1.94591H78.2841V1.38996ZM78.2841 0.834007H78.4694C78.5621 0.834007 78.6547 0.834006 78.6547 1.01932C78.6547 1.20464 78.5621 1.20464 78.4694 1.20464H78.2841V0.834007Z" fill="#27282A"/>
</svg>
