<svg width="95" height="32" viewBox="0 0 95 32" fill="none" xmlns="http://www.w3.org/2000/svg">
<path d="M94.4754 7.51203C93.1782 0.0993404 71.0328 -2.21713 44.903 2.32315C33.9693 4.26898 24.0548 7.04874 16.3642 10.1991C17.5687 10.1991 18.4026 10.4771 18.9586 11.0331C19.3292 11.4964 19.6072 12.0523 19.6072 12.7009V13.4422H17.0128V12.7936C17.0128 12.2376 16.7348 11.9596 16.0862 11.9596C15.6229 11.9596 15.3449 12.145 15.2523 12.6083C15.2523 12.7009 15.2523 12.8862 15.2523 13.1642C15.5302 14.2761 19.3292 15.0174 19.6999 17.0559C19.7925 17.3339 19.7925 17.8898 19.6999 18.7237C19.4219 20.3916 18.032 21.0402 16.1788 21.0402C13.5844 21.0402 12.5651 19.8356 12.5651 18.0751V17.2412H15.3449V18.2604C15.3449 18.8164 15.7155 19.0944 16.2715 19.0944C16.8274 19.0944 17.1054 18.909 17.1981 18.4458C17.2907 18.2604 17.2907 17.9825 17.1981 17.7045C16.7348 16.4073 13.1211 15.8513 12.7505 13.8128C12.6578 13.3495 12.6578 12.9789 12.7505 12.4229C12.7505 12.145 12.8431 11.9596 12.9358 11.6817C4.41119 15.666 -0.592378 20.1136 0.0562323 23.9126C1.35345 31.3253 23.4989 33.6418 49.6286 29.1015C61.1183 27.063 71.4034 24.0979 79.2794 20.7622C79.1867 20.7622 79.0941 20.7622 78.9087 20.7622C77.1482 20.7622 75.573 20.1136 75.3877 18.2604C75.3877 17.8898 75.3877 17.7971 75.3877 17.6118V13.4422C75.3877 13.2569 75.3877 12.9789 75.3877 12.7936C75.573 11.0331 76.9629 10.2918 78.9087 10.2918C80.3913 10.2918 82.2444 10.7551 82.4298 12.7936C82.4298 13.0716 82.4298 13.3495 82.4298 13.4422V13.8128H79.8353V13.2569C79.8353 13.2569 79.8353 12.9789 79.8353 12.8862C79.8353 12.7009 79.65 12.145 78.9087 12.145C78.1675 12.145 77.9821 12.6083 77.9821 12.8862C77.9821 12.9789 77.9821 13.1642 77.9821 13.3495V17.8898C77.9821 18.0751 77.9821 18.1678 77.9821 18.2604C77.9821 18.3531 78.1675 19.0017 79.0014 19.0017C79.8353 19.0017 79.928 18.3531 80.0206 18.2604C80.0206 18.1678 80.0206 17.9825 80.0206 17.8898V16.4999H79.0014V15.0174H82.6151V17.6118C82.6151 17.7971 82.6151 17.8898 82.6151 18.2604C82.6151 18.7237 82.4298 19.187 82.1518 19.465C90.2131 15.5733 95.124 11.2184 94.4754 7.51203ZM26.8346 20.5769L25.5374 11.6817H25.4447L24.1475 20.5769H21.3677L23.2209 10.5698H27.7612L29.6143 20.5769H26.8346ZM40.0848 20.5769L39.9921 11.867L38.3243 20.5769H35.7298L34.1546 11.867L34.062 20.5769H31.4675L31.6528 10.5698H35.8225L37.027 17.9825H37.1197L38.3243 10.5698H42.4012L42.5866 20.5769H40.0848ZM52.1304 18.6311C51.8524 20.5769 49.9066 20.9475 48.6094 20.9475C46.3856 20.9475 44.9957 20.021 44.9957 18.0751V17.2412H47.6828V18.2604C47.6828 18.8164 48.0534 19.0944 48.6094 19.0944C49.1653 19.0944 49.4433 18.909 49.5359 18.4458C49.6286 18.2604 49.6286 17.9825 49.5359 17.7045C49.0727 16.4999 45.5516 15.8513 45.0883 13.8128C44.9957 13.3495 44.9957 12.9789 45.0883 12.5156C45.3663 10.6624 47.1268 10.2918 48.6094 10.2918C49.9066 10.2918 50.8332 10.5698 51.3891 11.1257C51.7598 11.4964 52.0377 12.145 52.0377 12.7936V13.5348H49.5359V12.8862C49.5359 12.3303 49.1653 12.0523 48.6094 12.0523C48.1461 12.0523 47.8681 12.2376 47.7754 12.7009C47.7754 12.7936 47.7754 12.9789 47.7754 13.1642C48.0534 14.2761 51.8524 14.9247 52.2231 16.9632C52.2231 17.2412 52.3157 17.7971 52.1304 18.6311ZM61.5816 17.7045C61.5816 17.8898 61.5816 18.2604 61.5816 18.3531C61.3963 20.021 60.2844 20.8549 58.0605 20.8549C55.8367 20.8549 54.7248 20.021 54.5395 18.3531C54.5395 18.2604 54.5395 17.8898 54.5395 17.7045V10.4771H57.0413V17.8898C57.0413 18.0751 57.0413 18.1678 57.0413 18.2604C57.0413 18.4458 57.2266 19.0017 57.9679 19.0017C58.7092 19.0017 58.8945 18.4458 58.8945 18.2604C58.8945 18.1678 58.8945 18.0751 58.8945 17.8898V10.4771H61.4889C61.5816 10.5698 61.5816 17.7045 61.5816 17.7045ZM72.7006 20.4842H69.0869L66.6778 12.5156L66.7705 20.4842H64.2687V10.5698H68.0677L70.2915 18.1678H70.3841L70.2915 10.5698H72.7933V20.4842H72.7006Z" fill="#27282A"/>
</svg>
