<svg xmlns="http://www.w3.org/2000/svg" width="111" height="13" viewBox="0 0 111 13"><g fill="none" class="nc-icon-wrapper"><path d="M97.079 5.255H94.36V13h2.718V8.088h9.933v4.818h2.717V5.255h-12.65zM51.725 3.27h9.746C62.97 2.893 64 1.76 64.28.532H49.009v7.65h12.65v1.984h-9.745c-1.406.567-2.53 1.512-2.811 2.74l-.094.094h15.368V5.444h-12.65V3.27zm24.083 6.8V.533H73.09V13h12.463v-.095c1.406-.566 2.343-1.605 2.624-2.739l-12.37-.094zm20.99-6.8h10.588c1.5-.566 2.53-1.605 2.905-2.833H93.893c.28 1.228 1.405 2.267 2.905 2.833zm-69.342 0h10.588c1.5-.566 2.53-1.605 2.905-2.833H24.645c.28 1.228 1.311 2.267 2.81 2.833zm0 9.729h10.588c1.5-.567 2.53-1.606 2.905-2.834H24.645c.28 1.228 1.311 2.267 2.81 2.834zM0 .532C.281 1.76 1.406 2.8 2.811 3.366h4.404l.188.094V13h2.81V3.46l.282-.094h4.404c1.5-.567 2.53-1.606 2.811-2.834H0zm27.456 7.65h10.588c1.5-.566 2.53-1.605 2.905-2.833H24.645c.28 1.228 1.311 2.267 2.81 2.834z" fill="#142733"></path></g></svg>