<svg width="76" height="23" viewBox="0 0 76 23" fill="none" xmlns="http://www.w3.org/2000/svg">
<path d="M45.2175 0.463293C43.7349 0.926586 42.345 1.94583 41.1405 3.24305C39.1947 5.3742 38.2681 7.96864 38.2681 11.119C38.2681 14.1768 39.1947 16.7712 41.1405 18.995C42.7157 20.7555 44.5689 21.7748 46.7 22.1454C47.1633 22.2381 47.6266 22.2381 48.0899 22.2381C48.5532 22.2381 49.1091 22.2381 49.5724 22.1454C51.7036 21.7748 53.5567 20.7555 55.1319 18.995C57.0778 16.8639 58.0044 14.2694 58.097 11.119C58.097 8.0613 57.0778 5.46686 55.1319 3.24305C53.9274 1.85317 52.5375 0.926586 51.055 0.463293C50.1284 0.185317 49.2018 0 48.1825 0C47.1633 0 46.1441 0.185317 45.2175 0.463293ZM48.0899 1.94583C50.1284 1.94583 51.8889 2.77976 53.3714 4.54028C54.854 6.30079 55.5952 8.43194 55.5952 10.9337C55.5952 13.4355 54.854 15.474 53.3714 17.2345C51.8889 18.995 50.1284 19.829 48.0899 19.829C46.0514 19.829 44.2909 18.995 42.8083 17.2345C41.3258 15.474 40.5845 13.4355 40.5845 10.9337C40.5845 8.43194 41.3258 6.39345 42.8083 4.54028C44.2909 2.87242 46.0514 1.94583 48.0899 1.94583Z" fill="#27282A"/>
<path d="M36.2295 5.93018C36.0442 2.50181 34.2836 0.648635 31.0406 0.463318H20.6628V9.35855H17.7904L16.2152 11.675H20.6628V22.0528H30.2067C31.7819 21.9601 33.2644 21.4968 34.6543 20.5702C36.3221 19.4583 37.1561 17.9758 37.2487 15.9373C37.2487 13.6208 36.2295 11.7677 34.191 10.3778C35.5809 9.54387 36.2295 8.06133 36.2295 5.93018ZM33.4497 4.72561C33.7277 5.83752 33.7277 6.85677 33.2644 7.78335C32.8011 8.70994 31.7819 9.26589 30.114 9.26589H23.2573V2.59447H29.9287C31.9672 2.87244 33.1717 3.61371 33.4497 4.72561ZM30.392 19.3657H23.1646V11.675H30.2067C31.3186 11.7677 32.1525 12.0456 32.8938 12.6016C33.913 13.3429 34.3763 14.3621 34.3763 15.6593C34.3763 16.6786 33.913 17.5125 33.0791 18.2538C32.2452 18.9024 31.4112 19.273 30.392 19.3657Z" fill="#27282A"/>
<path d="M19.0877 0.463318H16.1226L9.91448 8.8026L3.70635 0.463318H0.741269L8.43194 10.7484L0 22.0528H3.05773L9.91448 12.7869L16.7712 22.0528H19.8289L11.397 10.7484L19.0877 0.463318Z" fill="#27282A"/>
<path d="M71.4399 0.463318L65.3244 8.8026L59.1163 0.463318H56.1512L63.8418 10.7484L55.4099 22.0528H58.375L65.3244 12.7869L72.1811 22.0528H75.1462L66.8069 10.7484L74.4976 0.463318H71.4399Z" fill="#27282A"/>
</svg>
